<?xml version="1.0" encoding="utf-8" ?><svg xmlns="http://www.w3.org/2000/svg" xmlns:xlink="http://www.w3.org/1999/xlink" width="2050" height="709" viewBox="0 0 2050 709"><path transform="matrix(2.80055 0 0 2.80237 0 3.05176e-05)" d="M424.21 21.0597C438.104 20.5603 452.17 20.9694 466.082 21.0778C467.184 24.3167 468.915 27.5075 470.347 30.6233C472.791 35.9456 475.199 41.2839 477.572 46.6381L503.828 105.473L523.125 148.562C526.032 155.212 529.926 166.111 533.505 171.966C518.36 172.291 503.166 172.049 488.018 172.013C485.091 162.568 480.06 153.754 476.915 144.363C468.87 144.72 460.714 144.434 452.659 144.416C443.944 144.395 435.144 144.628 426.443 144.172C430.171 134.475 433.427 124.3 437.896 114.934C441.797 114.609 445.837 114.795 449.753 114.778C455.037 114.755 460.355 114.527 465.622 115.02C464.842 113.365 464.164 111.646 463.442 109.965C458.772 97.3392 453.279 84.8174 447.993 72.4316C447.063 70.2526 446.373 67.1064 445.044 65.2616L444.611 65.3633C442.892 68.1874 442.211 71.7372 440.907 74.7845C435.369 87.7242 430.249 100.848 424.902 113.872L408.438 153.528C406.323 158.55 402.004 167.039 400.862 172.062C387.011 171.682 372.969 171.921 359.109 172.046C361.436 168.224 362.998 163.605 364.744 159.472C367.742 152.314 370.802 145.181 373.921 138.074L408.377 57.8427C413.617 45.6111 418.374 33.0167 424.21 21.0597Z"/><path transform="matrix(2.80055 0 0 2.80237 0 3.05176e-05)" d="M578.058 20.1051C584.609 19.6082 591.817 19.6888 598.378 20.0619C612.895 20.8873 627.417 25.6301 637.302 36.7513C644.743 45.123 648.1 56.2005 647.408 67.3027C645.908 91.3973 625.387 111.869 608.324 126.947C603.66 131.068 598.724 134.872 594.062 138.999C614.291 138.689 634.579 138.937 654.813 139.016C654.12 144.528 654.507 150.314 654.507 155.881C654.507 161.177 654.182 166.732 654.718 171.992L578.398 172.072L538.977 172.094C538.88 162.221 539.001 152.332 539.016 142.458C543.335 139.053 547.359 135.248 551.498 131.626C562.351 122.309 572.84 112.577 582.944 102.452C589.216 96.2419 595.945 90.2086 601.002 82.9293C604.309 78.1682 606.765 71.8686 605.658 65.9998C604.963 62.3206 602.943 59.1654 599.838 57.0645C595.035 53.815 588.337 53.003 582.736 54.1343C573.235 56.0533 565.584 63.3654 560.389 71.2235L531.085 52.7673C532.728 50.4505 534.094 47.8474 535.67 45.4668C545.782 30.1902 560.666 23.6465 578.058 20.1051Z"/><path transform="matrix(2.80055 0 0 2.80237 0 3.05176e-05)" d="M127.937 86.7785C128.081 86.8083 128.214 86.8437 128.349 86.9034C129.737 87.5175 130.214 89.6841 130.71 91.0287C130.875 91.473 131.031 91.9204 131.179 92.3706C131.563 93.5531 132.025 94.9107 131.4 96.0577C130.703 97.3354 121.233 101.316 119.359 102.254C95.1266 114.382 67.5358 130.537 55.8128 156.138C50.6625 167.385 49.6828 181.199 54.0424 192.823C62.989 216.676 86.5134 224.511 107.572 234.365C116.127 238.368 124.808 242.081 133.36 246.074C137.375 247.948 141.229 250.14 145.262 251.97L98.2017 252.122C90.8305 252.098 83.4593 252.118 76.0884 252.179C63.4351 252.231 52.4873 252.029 40.7792 246.578C24.942 239.204 11.818 226.126 5.80178 209.583C0.0962659 193.611 0.926753 176.033 8.11273 160.67C11.3131 153.828 31.2578 119.456 36.1158 115.631C38.5711 113.697 77.3963 103.209 84.0697 101.136C98.7328 96.5799 113.502 92.0069 127.937 86.7785Z"/><path transform="matrix(2.80055 0 0 2.80237 0 3.05176e-05)" d="M242.883 118.4C243.224 118.492 243.407 118.589 243.647 118.849C247.789 123.334 251.137 130.514 254.341 135.877C264.391 152.704 275.238 166.999 274.577 187.697C273.985 206.231 265.099 223.248 251.724 235.739C234.862 251.487 221.188 252.263 199.293 252.151C192.646 252.117 185.951 252.419 179.311 252.181C177.116 252.103 175.367 251.887 173.395 250.893C167.343 247.842 161.531 243.652 155.81 240.004C143.415 232.09 131.098 224.055 118.861 215.9C113.427 212.325 99.793 204.605 95.9434 200.476C93.867 201.087 91.7082 201.772 89.5367 201.906C86.2095 202.112 83.0668 201.22 80.5598 198.961C78.0102 196.663 76.6108 193.369 76.436 189.966C76.238 186.42 77.4663 182.941 79.8475 180.305C82.0458 177.888 85.1175 176.447 88.3819 176.302C91.7795 176.177 95.3214 177.58 97.7838 179.915C101.132 183.091 101.556 187.165 101.692 191.519C105.705 194.524 110.294 197.07 114.517 199.795C123.73 205.696 132.895 211.673 142.01 217.724C148.131 215.369 154.313 213.173 160.549 211.139C158.559 210.048 156.618 208.84 154.661 207.689C148.516 203.832 113.58 182.336 111.596 179.63C108.317 175.157 105.64 164.12 104.112 158.565C101.511 158.188 99.1037 157.836 96.8177 156.465C93.9677 154.756 92.2121 151.69 91.445 148.515C90.7178 145.506 91.8902 140.996 93.5048 138.398C95.1771 135.708 97.7632 133.948 100.844 133.257C104.346 132.453 108.025 133.076 111.066 134.99C113.987 136.851 116.052 139.791 116.811 143.17C117.767 147.63 116.009 150.975 113.672 154.604C115.877 158.849 117.064 164.014 118.712 168.525C119.255 170.013 119.908 171.751 121.07 172.874C124.587 176.268 129.855 178.78 134.024 181.391L157.783 196.34C162.887 199.499 168.364 202.466 173.178 206.05C184.732 214.653 194.193 226.582 207.438 232.72C218.183 237.7 231.257 239.16 242.529 235.001C246.781 233.431 250.439 231.252 252.378 226.99C255.716 219.655 254.172 208.942 251.451 201.658C246.473 188.334 235.041 178.214 222.329 172.429C226.185 161.242 230.228 150.119 234.455 139.067C237.027 132.206 239.404 124.86 242.883 118.4Z"/><path transform="matrix(2.80055 0 0 2.80237 0 3.05176e-05)" d="M136.384 1.18102C143.885 0.298478 152.078 1.50439 159.269 3.67464C185.415 11.5651 196.867 37.2091 209.511 58.9015C215.997 70.0284 222.958 81.0228 229.037 92.3696C226.724 99.3328 223.922 106.162 221.352 113.035L206.349 153.371C204.214 159.181 201.686 164.957 199.87 170.868C194.84 169.849 189.969 168.163 185.386 165.857L158.911 88.6165L151.907 68.1995C150.406 63.7306 149.166 57.6806 146.627 53.7313C143.989 49.6284 133.923 43.12 129.873 38.9062C126.164 40.2094 122.052 40.8815 118.222 41.8334C115.108 42.5039 110.626 42.5663 108.925 45.5844C108.08 47.0845 107.357 48.6857 106.285 50.0444C104.436 52.3881 101.646 53.5669 98.7325 53.8806C95.4253 54.2366 92.1143 53.3621 89.5194 51.2537C86.8544 49.0883 85.2303 45.7684 84.9172 42.3722C84.5662 38.8235 85.6591 35.2831 87.9494 32.5495C90.0405 30.0405 92.9225 28.2842 96.2139 27.9986C100.58 27.6198 104.013 29.6235 107.248 32.3103C108.343 31.8591 109.457 31.584 110.606 31.3121C113.95 30.5205 131.907 26.1749 133.804 27.3673L134.148 27.5809C137.194 29.4322 154.397 44.2559 156.02 46.8148C157.559 49.2396 158.38 53.0369 159.307 55.7689L166.096 75.9772L176.248 105.621C178.048 110.942 180.112 116.34 181.432 121.801C183.868 117.199 193.354 103.208 192.767 98.8856C192.039 93.5257 188.308 85.2204 186.467 79.7837C184.558 74.1437 182.957 68.3882 180.93 62.7905C174.79 45.8343 165.669 30.7486 151.206 19.7071C139.06 10.4349 125.993 7.80606 111.087 9.7993C119.293 5.20306 127.125 2.58972 136.384 1.18102Z"/><path transform="matrix(2.80055 0 0 2.80237 0 3.05176e-05)" d="M660.755 21.1085C668.974 20.8473 677.205 21.0288 685.428 21.0193L729.115 21.0745C728.813 25.565 729.031 30.182 729.026 34.6888L729.009 60.7066L729.022 139.815C729.034 149.997 729.678 161.575 729.039 171.532L728.439 171.909C714.992 172.358 701.456 171.467 688.027 172.097C688.375 160.149 688.06 148.095 688.059 136.137L688.127 54.2083C680.429 53.368 668.913 54.0538 660.874 54.0585C660.429 43.0996 660.661 32.0754 660.755 21.1085Z"/><path transform="matrix(2.80055 0 0 2.80237 0 3.05176e-05)" d="M309.997 21.0354C323.781 20.9471 337.566 20.9637 351.35 21.0852C350.722 25.3339 351.139 30.0999 351.14 34.4078L351.147 60.4634L351.197 128.638C351.22 142.325 351.535 156.087 351.05 169.766C351.161 170.629 351.401 171.13 350.924 171.878C346.332 172.36 341.487 172.048 336.859 172.046L309.991 171.986L309.997 21.0354Z"/><path transform="matrix(2.80055 0 0 2.80237 0 3.05176e-05)" d="M144.086 96.1149C144.226 96.2163 144.529 96.3771 144.625 96.5053C145.427 97.578 167.658 167.192 168.362 171.063C172.029 174.035 176.674 176.423 180.714 178.867L207.865 195.004C208.271 194.746 208.686 194.5 209.107 194.267C212.155 192.591 216.015 192.188 219.345 193.181C222.522 194.12 225.184 196.302 226.729 199.231C228.317 202.279 228.634 205.831 227.61 209.111C226.458 212.844 223.866 215.15 220.51 216.937C219.624 217.251 218.719 217.51 217.801 217.712C214.874 218.334 211.55 217.642 209.058 216.009C205.046 213.38 204.126 209.523 203.222 205.126C199.664 202.613 195.477 200.546 191.699 198.337C184.88 194.341 178.101 190.278 171.361 186.15C168.128 184.177 164.287 182.238 161.452 179.744C160.237 178.674 159.603 177.078 159.003 175.61C155.62 167.341 153.192 158.404 150.406 149.891C144.962 133.272 139.609 116.624 134.346 99.9474C137.616 98.7348 140.917 97.5763 144.086 96.1149Z"/><path transform="matrix(2.80055 0 0 2.80237 0 3.05176e-05)" d="M694.008 199.816C704.615 197.77 714.856 204.759 716.814 215.38C718.773 226 711.698 236.181 701.06 238.052C690.544 239.901 680.504 232.928 678.568 222.43C676.632 211.932 683.525 201.837 694.008 199.816ZM698.612 234.559C703.04 233.89 706.282 232.706 709.024 228.987C711.871 225.125 712.713 220.17 711.957 215.486C711.327 211.589 709.362 208.114 706.133 205.796C703.343 203.793 699.938 202.957 696.536 203.062C691.805 204.212 688.111 205.664 685.454 210.034C683.055 213.98 682.304 219.041 683.431 223.517C684.356 227.194 686.485 230.546 689.781 232.516C692.542 234.166 695.459 234.516 698.612 234.559Z"/><path transform="matrix(2.80055 0 0 2.80237 0 3.05176e-05)" d="M362.161 200.078L362.359 200.067C371.208 199.577 383.708 198.591 390.694 204.927C394.506 208.385 396.143 213.297 396.373 218.336C396.619 223.709 394.767 228.591 391.168 232.535C382.976 239.801 372.186 237.967 362.001 238.058C362.397 225.544 361.269 212.438 362.161 200.078ZM388.116 229.683C390.969 225.897 392.546 221.7 391.886 216.908C391.354 213.037 389.79 209.391 386.609 206.99C380.977 202.742 372.933 204.06 366.346 203.987C366.672 209.717 366.496 215.518 366.477 221.258C366.464 225.455 366.708 229.872 366.204 234.033C373.647 234.103 382.328 235.343 388.116 229.683Z"/><path transform="matrix(2.80055 0 0 2.80237 0 3.05176e-05)" d="M128.66 61.5996L129.418 61.7558C130.566 63.8377 131.759 68.2896 131.787 70.679C131.793 71.1533 131.755 71.6121 131.344 71.8865C128.23 73.9633 102.319 79.2304 96.675 80.4939C93.9157 81.1116 90.0205 81.5342 87.5703 82.9122C85.2961 84.1913 83.9372 86.5379 82.091 88.3191C79.7744 90.5542 76.6619 91.5863 73.4626 91.5107C69.4765 91.4165 66.6145 89.3931 63.9683 86.6023C61.9484 84.0196 60.8885 81.332 61.0569 78.0143C61.2311 74.5549 62.7819 71.3089 65.3637 68.9992C67.9471 66.6725 71.3559 65.4789 74.8268 65.6858C79.2965 65.9827 82.2664 68.3737 85.12 71.6066C90.3083 69.5629 96.3299 68.8221 101.767 67.5969C110.719 65.5794 119.636 63.2693 128.66 61.5996Z"/><path transform="matrix(2.80055 0 0 2.80237 0 3.05176e-05)" d="M640.378 200.073C642.117 200.046 643.86 200.104 645.598 200.136C647.035 205.359 649.734 210.503 651.926 215.461C655.26 222.904 658.47 230.401 661.554 237.951C660.038 238.019 658.51 238.009 656.991 238.035L652.734 227.705C650.191 227.84 647.638 227.851 645.092 227.899C640.902 227.917 636.622 228.103 632.45 227.693C631.243 231.147 629.731 234.487 628.569 237.963L623.591 237.967C625.568 234.761 626.919 231.031 628.361 227.558C632.064 218.641 635.531 208.381 640.378 200.073ZM634.1 224.084L642.555 224.018C645.407 224.029 648.28 223.977 651.129 224.083C649.955 221.439 643.389 204.585 642.333 203.873C639.854 210.539 637.319 217.751 634.1 224.084Z"/><path transform="matrix(2.80055 0 0 2.80237 0 3.05176e-05)" d="M539.419 199.959L540.775 200.149C542.049 201.062 555.02 232.974 557.618 237.88C555.962 238.024 554.265 238.011 552.602 238.065C551.511 234.61 550.112 231.274 548.749 227.92L538.356 227.887C535.052 227.933 531.73 228.054 528.431 227.821C527.306 230.54 525.871 236.32 523.447 237.96C522.484 238.027 521.588 238.125 520.673 237.752C520.393 237.638 520.376 237.396 520.263 237.129C521.427 232.663 524.076 228.183 525.882 223.911C528.665 217.329 532.312 206.096 535.933 200.463C536.874 199.781 538.301 199.964 539.419 199.959ZM529.938 224.108L539.439 224.048L546.857 224.092C546.044 222.199 538.924 204.286 538.401 203.909C535.713 210.467 533.392 217.956 529.938 224.108Z"/><path transform="matrix(2.80055 0 0 2.80237 0 3.05176e-05)" d="M312.065 200.076C319.008 200.078 330.852 199.187 337.258 200.168C338.255 200.321 338.295 200.426 338.868 201.21C339.054 202.155 339.085 202.643 338.644 203.511C336.5 204.753 320.256 204.035 316.516 203.913C316.522 208.257 316.634 212.636 316.296 216.969C319.477 216.932 334.108 216.089 335.916 217.692C335.922 218.706 335.956 219.656 335.632 220.633C330.302 221.487 323.176 220.78 317.659 220.742L317.294 220.766C317.178 220.862 316.795 221.109 316.738 221.223C316.086 222.539 316.546 231.656 316.178 234.02C319.426 234.047 337.394 233.381 339.113 234.464C339.422 235.509 339.465 236.24 339.279 237.313C337.133 238.733 316.095 238.038 312.078 237.997C311.855 233.783 312.054 229.445 312.056 225.218L312.065 200.076Z"/><path transform="matrix(2.80055 0 0 2.80237 0 3.05176e-05)" d="M591.769 199.515C598.674 198.787 602.906 201.592 608.142 205.639L604.549 208.564C601.869 205.816 599.102 203.871 595.172 203.51C591.361 203.161 587.053 204.052 584.076 206.555C580.849 209.269 579.334 213.549 578.998 217.649C578.637 222.046 579.777 226.305 582.665 229.7C585.15 232.619 588.579 234.236 592.382 234.521C597.559 234.909 601.293 233.142 605.142 229.859L608.356 232.15C606.593 233.942 604.621 235.32 602.502 236.656C600.757 237.328 598.453 237.676 597.268 239.151C597.022 240.593 598.481 243.341 598.955 244.828C598.463 245.633 597.875 246.537 597.141 247.134C594.848 248.997 591.002 249.217 588.196 248.968C586.405 248.808 584.486 248.386 583.284 246.952C583.148 245.811 583.649 245.332 584.214 244.38L584.316 244.418C588.293 245.895 590.47 246.464 594.468 244.637C594.053 242.764 593.596 240.9 593.096 239.048C589.2 238.19 585.564 237.183 582.303 234.788C578.16 231.776 575.417 227.213 574.7 222.143C573.909 216.888 575.153 211.056 578.361 206.775C581.684 202.339 586.419 200.272 591.769 199.515Z"/><path transform="matrix(2.80055 0 0 2.80237 0 3.05176e-05)" d="M418.04 200.021L422.581 200.103C421.921 205.523 421.612 220.09 422.369 225.508C422.611 227.244 423.081 228.945 424.026 230.436C425.254 232.372 427.153 233.625 429.374 234.118C432.4 234.79 437.063 234.495 439.706 232.725C447.431 227.55 442.596 208.659 444.146 200.447C444.526 200.183 444.794 199.922 445.27 199.874C446.041 199.796 446.961 199.945 447.559 200.484C448.32 201.169 448.085 202.287 448.094 203.24C448.179 210.267 449.061 222.206 447.264 228.673C446.655 230.865 445.563 232.826 443.965 234.451C441.167 237.299 437.048 238.643 433.116 238.671C429.065 238.7 424.976 237.355 422.064 234.469C420.384 232.816 419.187 230.737 418.599 228.455C417.151 222.907 418.078 206.883 418.04 200.021Z"/><path transform="matrix(2.80055 0 0 2.80237 0 3.05176e-05)" d="M485.993 199.486C487.693 199.352 489.384 199.28 491.088 199.377C496.366 199.679 500.44 202.216 503.892 206.076L500.545 208.47C499.897 207.81 499.222 207.177 498.521 206.573C495.685 204.149 491.977 202.775 488.231 203.096C484.446 203.42 480.683 205.333 478.262 208.268C475.26 211.908 474.465 216.797 474.942 221.387C475.335 225.176 476.939 228.943 479.962 231.373C484.15 234.739 488.973 234.536 494 233.982C496.746 233.647 499.175 231.476 501.253 229.817C502.185 230.675 502.991 231.732 503.821 232.691C501.173 235.108 498.01 237.174 494.504 238.056C489.481 239.349 484.15 238.601 479.677 235.977C475.149 233.263 472.066 229.015 470.808 223.9C469.525 218.683 470.301 212.587 473.121 207.978C476.019 203.241 480.739 200.768 485.993 199.486Z"/><path transform="matrix(2.80055 0 0 2.80237 0 3.05176e-05)" d="M649.725 189.548C650.036 189.577 650.39 189.606 650.686 189.718C651.56 190.051 651.783 190.394 652.115 191.213C651.864 193.228 649.883 194.589 648.449 195.815C643.731 196.211 639.439 194.922 634.797 195.048L634.371 194.587C634.661 193.835 634.963 193.076 635.459 192.434C638.111 188.999 642.249 193.412 645.697 192.871C647.577 192.576 648.676 190.962 649.725 189.548Z"/></svg>